<?xml version="1.0" encoding="UTF-8" standalone="no"?>
<!DOCTYPE svg PUBLIC "-//W3C//DTD SVG 1.1//EN" "http://www.w3.org/Graphics/SVG/1.1/DTD/svg11.dtd">
<svg width="100%" height="100%" viewBox="0 0 1492 243" version="1.1" xmlns="http://www.w3.org/2000/svg" xmlns:xlink="http://www.w3.org/1999/xlink" xml:space="preserve" xmlns:serif="http://www.serif.com/" style="fill-rule:evenodd;clip-rule:evenodd;stroke-linejoin:round;stroke-miterlimit:2;">
    <g transform="matrix(4.16667,0,0,4.16667,-86.1512,-83.3338)">
        <g transform="matrix(1,0,0,1,192.682,34.998)">
            <path d="M0,0.762L-5.625,0.762L-5.625,-10.152L0,-10.152C3.005,-10.152 5.457,-7.701 5.457,-4.695C5.457,-1.689 3.005,0.762 0,0.762M0,-14.292L-10.085,-14.292L-10.085,15.054L-5.625,15.054L-5.625,1.878L-3.137,4.902L0,4.902C5.286,4.902 9.597,0.591 9.597,-4.695C9.597,-9.981 5.286,-14.292 0,-14.292" style="fill:rgb(35,25,22);fill-rule:nonzero;"/>
        </g>
        <g transform="matrix(1,0,0,1,207.79,34.998)">
            <path d="M0,0.762L0,-10.152L5.522,-10.152C8.529,-10.152 10.98,-7.701 10.98,-4.695C10.98,-1.689 8.529,0.762 5.522,0.762L0,0.762ZM7.225,4.202C11.704,3.493 15.12,0.01 15.12,-4.695C15.12,-9.981 10.809,-14.292 5.522,-14.292L-4.459,-14.292L-4.459,15.054L0,15.054L0,2.171L9.335,15.054L15.688,15.054L7.225,4.334L7.225,4.202Z" style="fill:rgb(35,25,22);fill-rule:nonzero;"/>
        </g>
        <g transform="matrix(1,0,0,1,0,-27.5256)">
            <rect x="224.234" y="48.232" width="4.459" height="29.346" style="fill:rgb(35,25,22);"/>
        </g>
        <g transform="matrix(1,0,0,1,274.821,34.998)">
            <path d="M0,0.762L0,-10.152L5.522,-10.152C8.528,-10.152 10.979,-7.701 10.979,-4.695C10.979,-1.689 8.528,0.762 5.522,0.762L0,0.762ZM7.224,4.202C11.703,3.493 15.119,0.01 15.119,-4.695C15.119,-9.981 10.808,-14.292 5.522,-14.292L-23.603,-14.292L-23.603,13.304L-33.28,-14.292L-42.625,-14.292L-42.625,15.054L-38.166,15.054L-38.166,-12.541L-28.487,15.054L-19.143,15.054L-19.143,-10.152L-13.918,-10.152L-13.918,15.054L-9.458,15.054L-9.458,-10.152L-4.459,-10.152L-4.459,15.054L0,15.054L0,2.171L9.335,15.054L15.687,15.054L7.224,4.334L7.224,4.202Z" style="fill:rgb(35,25,22);fill-rule:nonzero;"/>
        </g>
        <g transform="matrix(1,0,0,1,374.884,35.7251)">
            <path d="M0,-1.137C0,-0.843 -0.187,-0.696 -0.564,-0.696L-0.741,-0.696L-0.741,-1.539L-0.507,-1.539C-0.167,-1.539 0,-1.406 0,-1.137M-1.25,-1.937L-1.25,0.8L-0.741,0.8L-0.741,-0.309L-0.507,-0.309L0.08,0.8L0.649,0.8L0.013,-0.412C0.359,-0.595 0.532,-0.858 0.532,-1.2C0.532,-1.691 0.189,-1.937 -0.495,-1.937L-1.25,-1.937Z" style="fill:rgb(35,25,22);fill-rule:nonzero;"/>
        </g>
        <g transform="matrix(1,0,0,1,305.765,24.8361)">
            <path d="M0,21.086C-5.807,21.086 -10.543,16.35 -10.543,10.543C-10.543,4.736 -5.807,0 0,0C5.807,0 10.543,4.736 10.543,10.543C10.543,16.35 5.807,21.086 0,21.086M0,-4.836C-8.47,-4.836 -15.379,2.073 -15.379,10.543C-15.379,19.013 -8.47,25.922 0,25.922C8.47,25.922 15.379,19.013 15.379,10.543C15.379,2.073 8.47,-4.836 0,-4.836" style="fill:rgb(35,25,22);fill-rule:nonzero;"/>
        </g>
        <g transform="matrix(1,0,0,1,370.901,35.5687)">
            <path d="M0,-0.379L7.287,-14.862L2.449,-14.862L-4.413,-0.478L-11.274,-14.862L-16.112,-14.862L-8.825,-0.379L-16.68,14.483L-11.652,14.483L-4.413,-0.282L2.828,14.483L7.854,14.483L0,-0.379Z" style="fill:rgb(35,25,22);fill-rule:nonzero;"/>
        </g>
        <g transform="matrix(1,0,0,1,376.307,35.1897)">
            <path d="M0,0C0,0.488 -0.175,0.906 -0.524,1.255C-0.874,1.604 -1.293,1.777 -1.78,1.777C-2.269,1.777 -2.686,1.604 -3.036,1.255C-3.384,0.906 -3.558,0.488 -3.558,0C-3.558,-0.487 -3.384,-0.907 -3.036,-1.258C-2.686,-1.607 -2.269,-1.782 -1.78,-1.782C-1.293,-1.782 -0.874,-1.607 -0.524,-1.258C-0.175,-0.907 0,-0.487 0,0M-3.398,-1.62C-3.844,-1.177 -4.067,-0.634 -4.067,0C-4.067,0.631 -3.844,1.171 -3.398,1.617C-2.951,2.063 -2.413,2.287 -1.78,2.287C-1.15,2.287 -0.611,2.063 -0.165,1.617C0.282,1.171 0.505,0.631 0.505,0C0.505,-0.634 0.282,-1.177 -0.165,-1.62C-0.611,-2.064 -1.15,-2.287 -1.78,-2.287C-2.413,-2.287 -2.951,-2.064 -3.398,-1.62" style="fill:rgb(35,25,22);fill-rule:nonzero;"/>
        </g>
        <g transform="matrix(1,0,0,1,0,-27.5256)">
            <rect x="349.655" y="48.232" width="4.459" height="29.346" style="fill:rgb(35,25,22);"/>
        </g>
        <g transform="matrix(1,0,0,1,341.229,22.456)">
            <path d="M0,25.846L-9.678,-1.75L-19.022,-1.75L-19.022,27.596L-14.563,27.596L-14.563,0.001L-4.885,27.596L4.459,27.596L4.459,-1.75L0,-1.75L0,25.846Z" style="fill:rgb(35,25,22);fill-rule:nonzero;"/>
        </g>
        <g transform="matrix(-0.318184,0.948029,0.948029,0.318184,252.058,66.5053)">
            <path d="M-3.016,-4.225L3.729,-4.225L2.356,-0.134L-3.03,-4.182L-3.016,-4.225Z" style="fill:rgb(35,25,22);"/>
        </g>
        <g transform="matrix(1,0,0,1,311.21,71.9862)">
            <path d="M0,-10.611L-1.257,-10.611L-2.96,-12.245L-2.96,1.634L-0.045,1.634C2.892,1.634 6.123,0.166 6.123,-4.443C6.123,-6.973 4.564,-10.611 0,-10.611" style="fill:rgb(35,25,22);"/>
        </g>
        <g transform="matrix(-1,0,0,1,282.784,73.5116)">
            <path d="M0,-12.029C3.313,-12.029 6.015,-9.327 6.015,-6.014C6.015,-2.702 3.313,0 0,0C-3.313,0 -6.015,-2.702 -6.015,-6.014C-6.015,-9.327 -3.313,-12.029 0,-12.029" style="fill:rgb(35,25,22);"/>
        </g>
        <g transform="matrix(1,0,0,1,317.672,61.8467)">
            <path d="M0,11.593C-1.92,13.491 -4.18,14.011 -6.529,14.011L-11.861,14.011L-11.861,-2.708L-6.439,-2.708C-2.96,-2.708 -0.881,-1.376 0.384,0.364C1.582,2.036 2.101,4.07 2.101,5.697C2.101,7.956 1.243,10.373 0,11.593M-14.098,14.011L-16.538,14.011L-16.538,-2.708L-14.098,-2.708L-14.098,14.011ZM-34.888,14.425C-39.72,14.425 -43.662,10.483 -43.662,5.651C-43.662,0.819 -39.72,-3.123 -34.888,-3.123C-30.057,-3.123 -26.114,0.819 -26.114,5.651C-26.114,10.483 -30.057,14.425 -34.888,14.425M-45.459,14.011L-47.899,14.011L-47.899,-0.471L-51.029,-0.471L-51.029,8.611C-51.029,10.509 -51.662,11.887 -52.724,12.904C-53.763,13.762 -55.096,14.327 -56.632,14.327C-58.168,14.327 -59.501,13.762 -60.541,12.904C-61.603,11.887 -62.235,10.509 -62.235,8.611L-62.235,-2.708L-59.795,-2.703L-59.795,8.543C-59.795,11.638 -57.536,12.091 -56.632,12.091C-55.729,12.091 -53.47,11.638 -53.47,8.543L-53.47,-2.708L-42.251,-2.708L-42.251,-0.471L-45.459,-0.471L-45.459,14.011ZM-63.802,14.011L-65.654,9.085L-69.647,9.085L-71.034,7.384L-73.53,14.014L-76.092,14.011L-69.744,-2.708L-67.552,-2.708L-61.203,14.011L-63.802,14.011ZM-135.075,16.438L61.084,16.438L61.084,-4.845L-135.075,-4.845L-135.075,16.438Z" style="fill:rgb(35,25,22);"/>
        </g>
        <g transform="matrix(-1,0,0,1,194.238,49.2484)">
            <rect x="20.677" y="20" width="152.884" height="9.036" style="fill:rgb(35,25,22);"/>
        </g>
        <g transform="matrix(1,0,0,1,20.6763,54.1211)">
            <path d="M0,-24.364L13.782,-24.364L13.782,9.036L27.336,9.036L27.336,-24.364L41.118,-24.364L41.118,-33.4L0,-33.4L0,-24.364Z" style="fill:rgb(35,25,22);fill-rule:nonzero;"/>
        </g>
        <g transform="matrix(1,0,0,1,112.14,44.8842)">
            <path d="M0,-5.882C-1.833,-6.886 -3.937,-7.459 -6.174,-7.459L-29.972,-7.459C-32.089,-7.459 -33.806,-9.176 -33.806,-11.293C-33.806,-13.41 -32.089,-15.127 -29.972,-15.127L3.71,-15.127L3.71,-24.163L-34.943,-24.163C-40.716,-24.163 -45.601,-20.362 -47.232,-15.127C-47.609,-13.916 -47.813,-12.628 -47.813,-11.293C-47.813,-9.958 -47.609,-8.67 -47.232,-7.459C-45.601,-2.224 -40.716,1.577 -34.943,1.577L-11.146,1.577C-9.028,1.577 -7.312,3.293 -7.312,5.411C-7.312,7.528 -9.028,9.244 -11.146,9.244L-44.823,9.244L-44.823,18.281L-6.174,18.281C-0.402,18.281 4.483,14.48 6.114,9.244C6.492,8.033 6.695,6.746 6.695,5.411C6.695,0.541 3.989,-3.695 0,-5.882" style="fill:rgb(35,25,22);fill-rule:nonzero;"/>
        </g>
        <g transform="matrix(1,0,0,1,146.883,54.1191)">
            <path d="M0,-24.362L26.677,-24.362L26.677,-33.398L-4.574,-33.398C-4.672,-33.399 -4.767,-33.413 -4.865,-33.413C-4.964,-33.413 -5.059,-33.399 -5.157,-33.398C-8.497,-33.352 -11.643,-32.531 -14.441,-31.113C-21.351,-27.61 -26.097,-20.458 -26.097,-12.181C-26.097,-3.904 -21.351,3.248 -14.441,6.75C-11.589,8.197 -8.375,9.031 -4.963,9.046C-4.93,9.046 -4.898,9.051 -4.865,9.051C-4.832,9.051 -4.8,9.046 -4.768,9.046L26.677,9.046L26.677,0.009L0,0.009C-6.73,0.009 -12.186,-5.446 -12.186,-12.176C-12.186,-18.906 -6.73,-24.362 0,-24.362" style="fill:rgb(35,25,22);fill-rule:nonzero;"/>
        </g>
    </g>
</svg>
